HIERARCHY
ROOT root
{
	OFFSET 0.000000 0.000000 0.000000
	CHANNELS 6 Xposition Yposition Zposition Zrotation Yrotation Xrotation
	JOINT lhip
	{
		OFFSET 0.058581 -0.082280 -0.017664
		CHANNELS 3 Zrotation Yrotation Xrotation
		JOINT lknee
		{
			OFFSET 0.043451 -0.386469 0.008037
			CHANNELS 3 Zrotation Yrotation Xrotation
			JOINT lankle
			{
				OFFSET -0.014790 -0.426874 -0.037428
				CHANNELS 3 Zrotation Yrotation Xrotation
				JOINT ltoe
				{
					OFFSET 0.041054 -0.060286 0.122042
					CHANNELS 3 Zrotation Yrotation Xrotation
					End Site
					{
						OFFSET 0.000000 0.000000 0.000000
					}
				}
			}
		}
	}
	JOINT rhip
	{
		OFFSET -0.060310 -0.090513 -0.013543
		CHANNELS 3 Zrotation Yrotation Xrotation
		JOINT rknee
		{
			OFFSET -0.043257 -0.383688 -0.004843
			CHANNELS 3 Zrotation Yrotation Xrotation
			JOINT rankle
			{
				OFFSET 0.019056 -0.420046 -0.034562
				CHANNELS 3 Zrotation Yrotation Xrotation
				JOINT rtoe
				{
					OFFSET -0.034840 -0.062106 0.130323
					CHANNELS 3 Zrotation Yrotation Xrotation
					End Site
					{
						OFFSET 0.000000 0.000000 0.000000
					}
				}
			}
		}
	}
	JOINT lowerback
	{
		OFFSET 0.004439 0.124404 -0.038385
		CHANNELS 3 Zrotation Yrotation Xrotation
		JOINT upperback
		{
			OFFSET 0.004488 0.137956 0.026820
			CHANNELS 3 Zrotation Yrotation Xrotation
			JOINT chest
			{
				OFFSET -0.002265 0.056032 0.002855
				CHANNELS 3 Zrotation Yrotation Xrotation
				JOINT lowerneck
				{
					OFFSET -0.013390 0.211636 -0.033468
					CHANNELS 3 Zrotation Yrotation Xrotation
					JOINT upperneck
					{
						OFFSET 0.010113 0.088937 0.050410
						CHANNELS 3 Zrotation Yrotation Xrotation
						End Site
						{
							OFFSET 0.000000 0.000000 0.000000
						}
					}
				}
				JOINT lclavicle
				{
					OFFSET 0.071702 0.114000 -0.018898
					CHANNELS 3 Zrotation Yrotation Xrotation
					JOINT lshoulder
					{
						OFFSET 0.122921 0.045205 -0.019046
						CHANNELS 3 Zrotation Yrotation Xrotation
						JOINT lelbow
						{
							OFFSET 0.255332 -0.015649 -0.022946
							CHANNELS 3 Zrotation Yrotation Xrotation
							JOINT lwrist
							{
								OFFSET 0.265709 0.012698 -0.007375
								CHANNELS 3 Zrotation Yrotation Xrotation
								End Site
								{
									OFFSET 0.000000 0.000000 0.000000
								}
							}
						}
					}
				}
				JOINT rclavicle
				{
					OFFSET -0.082954 0.112472 -0.023707
					CHANNELS 3 Zrotation Yrotation Xrotation
					JOINT rshoulder
					{
						OFFSET -0.113228 0.046853 -0.008472
						CHANNELS 3 Zrotation Yrotation Xrotation
						JOINT relbow
						{
							OFFSET -0.260127 -0.014369 -0.031269
							CHANNELS 3 Zrotation Yrotation Xrotation
							JOINT rwrist
							{
								OFFSET -0.269108 0.006794 -0.006027
								CHANNELS 3 Zrotation Yrotation Xrotation
								End Site
								{
									OFFSET 0.000000 0.000000 0.000000
								}
							}
						}
					}
				}
			}
		}
	}
}
MOTION
Frames: 10
Frame Time: 0.033333
1.419408 0.301277 1.006374 -97.871209 -1.943474 91.858161 0.552478 -6.688470 -19.213104 -3.265708 1.461538 10.106047 4.854045 14.899688 9.806637 0.000000 -0.000000 0.000000 -4.981916 -3.344999 5.951475 -4.503160 1.960490 48.643657 5.098146 -11.481875 15.904581 0.000000 -0.000000 0.000000 -4.366981 10.250809 -0.503310 -0.621949 5.140434 3.345500 -2.097572 5.449932 2.549171 1.309345 -11.369626 5.142978 4.881513 -8.811158 8.702738 -14.552200 16.966046 3.321157 -42.815561 11.614607 14.752576 -122.338898 -58.051527 159.725216 22.350981 -15.750071 2.579314 12.934052 -3.387495 -2.786450 66.553227 0.127634 22.348247 125.210840 72.648279 153.579751 -23.349591 16.074525 -3.695770 
1.343998 0.296553 0.981620 -95.880706 -2.452574 90.496889 -2.222445 -7.230454 -17.386781 -4.372052 -0.441383 20.365658 9.997050 16.277483 -5.487054 0.000000 -0.000000 0.000000 -5.397546 -2.896637 3.175381 -4.916525 1.182392 59.771348 5.814930 -12.198085 11.753171 0.000000 -0.000000 0.000000 -4.670301 8.530467 1.815755 -0.450190 3.752282 1.718784 -2.178037 4.155092 3.412367 1.552069 -10.850344 4.348275 4.279480 -7.572976 8.063111 -17.057482 15.912594 1.993868 -43.220970 9.757491 15.591051 -119.896762 -59.324562 157.336705 22.543158 -15.957288 2.991130 14.583317 -5.509934 -3.691765 64.050340 -5.113622 21.760366 118.071695 74.224384 147.418271 -24.141497 15.630942 -2.839605 
1.273828 0.293857 0.955954 -93.871149 -2.933301 89.417547 -4.412312 -7.340349 -15.217757 -5.670548 -1.657622 28.360911 12.917581 19.321181 -15.589657 0.000000 -0.000000 0.000000 -5.681240 -2.038031 -1.924853 -4.019825 0.592350 70.965995 5.774294 -14.205948 7.736358 0.000000 -0.000000 0.000000 -5.078950 6.771155 4.112580 -0.351141 2.635768 0.628847 -2.482780 2.693770 5.026960 2.866490 -10.084956 1.320387 3.603765 -6.950587 8.691010 -20.872717 13.192778 0.602352 -43.598274 5.987813 16.747482 -116.366360 -62.511189 153.059233 22.747269 -16.068639 4.942948 17.779960 -7.844686 -5.111008 60.663722 -10.171288 20.955064 102.670782 77.823160 131.832431 -24.902824 15.052665 -0.540990 
1.190927 0.294708 0.936205 -92.575249 -3.028123 88.316902 -5.960877 -5.487762 -9.196755 -6.881266 -3.901974 31.178838 14.170647 22.270706 -22.646128 0.000000 -0.000000 0.000000 -5.230996 -0.448232 -11.436426 -3.062043 -0.081013 82.268539 5.146383 -16.865700 2.135411 0.000000 -0.000000 0.000000 -5.817733 4.080161 7.259750 -0.374441 1.974687 0.162650 -2.545057 0.778274 5.960761 4.347556 -8.539043 -1.421336 3.697026 -5.840816 8.766539 -24.018118 9.420438 0.282673 -46.161806 -0.540163 17.209547 -112.481038 -66.773252 149.658148 22.649353 -15.280793 7.255937 20.441164 -9.796665 -5.305312 57.872599 -15.821759 18.870261 52.553196 79.924051 81.439498 -25.877844 12.699240 2.863101 
1.142098 0.295062 0.934260 -91.378372 -2.341533 88.638865 -5.850728 -4.310390 -5.664900 -7.134019 -6.467439 30.993971 13.123977 22.627297 -24.638115 0.000000 -0.000000 0.000000 -4.402640 -0.076859 -18.619899 -3.352206 -0.865770 85.677837 5.220948 -17.296255 -1.079822 0.000000 -0.000000 0.000000 -5.386615 1.668288 8.190934 -0.246716 1.305536 -0.337437 -2.484007 -0.580683 6.162320 4.064281 -7.823656 -2.032449 3.819953 -4.775859 8.797685 -24.829519 8.163372 0.324839 -48.847226 -4.365691 17.477452 -113.653162 -68.244358 150.855727 23.224978 -15.283794 6.806368 20.664625 -11.167570 -4.992248 55.517447 -19.207939 17.333063 37.217517 77.706958 65.511689 -25.579744 12.354221 2.936138 
1.076382 0.296071 0.943370 -88.842272 -0.803434 89.604332 -4.488077 -2.866074 -1.107238 -7.235837 -10.759661 29.687511 10.552085 21.658365 -24.125989 0.000000 -0.000000 0.000000 -3.381124 -0.097703 -27.603235 -3.901034 -3.081308 84.830949 5.599640 -17.127242 -4.131275 0.000000 -0.000000 0.000000 -3.852264 -2.247371 8.631394 0.252063 -0.097139 -0.871360 -2.259940 -2.683842 6.243659 2.776823 -7.112026 -2.268185 3.542278 -2.404196 8.290113 -25.144847 7.109299 0.161400 -52.313393 -8.848656 18.190201 -118.332426 -68.979490 155.607377 24.019684 -15.387322 6.024314 19.693413 -13.584519 -4.867671 50.682833 -23.560740 16.079800 40.775049 75.763210 68.883489 -24.399187 13.135041 1.930591 
1.008491 0.298572 0.962950 -85.672404 0.853578 91.014316 -1.882920 -1.336289 2.936147 -6.981285 -14.611076 27.332225 7.226309 19.202890 -19.328501 0.000000 -0.000000 0.000000 -3.037159 -0.371783 -34.463224 -3.959953 -6.547653 77.981156 6.002314 -16.141075 -4.942913 0.000000 -0.000000 0.000000 -1.938251 -6.287134 7.987878 0.933257 -2.012489 -0.684787 -1.908536 -4.856044 5.968177 1.266424 -6.322622 -2.018770 3.374189 0.504552 6.567284 -24.566423 6.123644 0.283494 -54.314200 -12.156597 18.801485 -124.414537 -68.603713 161.501756 24.595736 -15.636979 5.757923 17.585353 -15.843282 -4.593027 46.263491 -27.100190 15.305110 50.581042 74.534696 78.499392 -23.944231 13.911086 0.519919 
0.938260 0.301445 0.988425 -83.213380 2.120977 92.744629 1.059193 0.352823 5.984169 -6.211174 -16.528467 24.112784 3.549339 16.645387 -9.562736 0.000000 -0.000000 0.000000 -3.144411 -0.387260 -38.605927 -3.295522 -10.066461 65.680801 5.565602 -15.318765 -2.743852 0.000000 -0.000000 0.000000 -0.141150 -9.879037 6.235589 1.615979 -4.098869 0.355152 -1.467406 -6.824952 5.286645 -0.559483 -5.082917 -1.520760 3.466244 3.363625 4.265583 -23.332194 5.760165 0.561425 -54.503492 -13.751400 18.661195 -129.721911 -67.216621 166.974455 24.739790 -16.383976 5.579188 14.713225 -17.289728 -3.324788 44.116058 -28.974402 14.175000 57.664250 73.828604 85.229491 -23.997709 13.830298 -1.721907 
0.864587 0.304099 1.014539 -81.969844 3.109021 94.486962 3.768753 1.887580 8.564158 -4.843890 -15.529518 20.055388 -0.296116 15.053947 4.393574 0.000000 -0.000000 0.000000 -2.846620 0.130895 -39.514226 -2.027208 -12.610859 48.823952 4.830175 -14.827620 2.570191 0.000000 -0.000000 0.000000 1.648369 -12.511343 3.813695 2.099651 -5.715200 1.651200 -0.936133 -8.300520 4.366290 -2.652044 -4.293608 -0.720919 3.676406 6.161950 2.059720 -21.634707 6.046086 1.147901 -54.040909 -13.909191 18.362480 -132.871388 -65.419410 170.444159 24.504365 -16.752970 4.706075 11.914206 -18.548951 -1.488216 43.410951 -29.609936 12.945415 62.424308 73.727521 89.792699 -23.920570 13.837475 -3.585095 
0.768379 0.307054 1.037092 -81.876115 3.639541 96.690409 6.000023 3.534656 10.818720 -3.986422 -12.499123 17.337584 -2.674650 13.495932 19.704264 0.000000 -0.000000 0.000000 -2.133838 1.149770 -37.546686 1.020532 -12.211602 25.287143 4.405357 -13.836968 12.234331 0.000000 -0.000000 0.000000 3.588679 -14.180997 -0.510196 2.249877 -6.882129 3.452818 -0.587007 -8.996936 3.332449 -5.535019 -4.791872 1.701989 4.085706 9.375944 -0.551408 -19.007592 7.097525 2.951517 -53.860257 -13.695858 17.757283 -132.486184 -63.389291 170.973268 23.563535 -16.979547 3.344913 8.356357 -19.977564 1.719532 44.619250 -29.768036 11.197663 66.660270 74.284721 94.609430 -22.728112 14.148188 -5.466483 
